<?xml version="1.0" standalone="no"?>
<!DOCTYPE svg PUBLIC "-//W3C//DTD SVG 20010904//EN"
 "http://www.w3.org/TR/2001/REC-SVG-20010904/DTD/svg10.dtd">
<svg version="1.0" xmlns="http://www.w3.org/2000/svg"
 width="512.000000pt" height="512.000000pt" viewBox="0 0 512.000000 512.000000"
 preserveAspectRatio="xMidYMid meet">
<metadata>
Created by potrace 1.11, written by Peter Selinger 2001-2013
</metadata>
<g transform="translate(0.000000,512.000000) scale(0.100000,-0.100000)"
fill="#000000" stroke="none">
<path d="M172 4999 c-18 -12 -44 -41 -58 -65 -57 -97 -54 -21 -81 -1754 -18
-1187 -22 -1625 -14 -1683 12 -88 54 -188 98 -228 28 -27 2242 -1057 2333
-1086 101 -33 59 -50 1325 528 644 293 1185 543 1204 557 52 38 90 131 101
244 11 119 43 2583 39 2993 l-4 310 -28 61 c-16 34 -46 79 -68 100 l-40 39
-2387 2 -2387 3 -33 -21z m1491 -754 c369 -55 623 -267 723 -602 36 -119 45
-353 19 -488 -56 -301 -242 -522 -525 -625 -136 -50 -201 -61 -407 -67 l-193
-6 0 -413 0 -414 -352 0 -351 0 6 533 c4 292 7 625 7 740 l0 207 469 0 469 0
53 28 c150 78 184 309 62 424 -15 15 -41 32 -56 37 -19 7 -193 11 -508 11
l-479 0 0 325 0 325 483 0 c373 0 504 -3 580 -15z m2923 -330 l-140 -345 -412
0 -411 0 -6 -97 c-4 -54 -7 -131 -7 -170 l0 -73 345 0 c190 0 345 -3 345 -7 0
-5 -57 -149 -127 -320 l-127 -313 -218 0 -218 0 0 -462 c0 -415 -2 -463 -17
-480 -15 -17 -42 -18 -454 -18 l-439 0 -15 23 c-14 21 -15 167 -13 1301 3
1252 3 1278 22 1292 17 12 173 14 1026 14 l1007 0 -141 -345z"/>
</g>
</svg>
