<svg xmlns="http://www.w3.org/2000/svg" id="Layer_1" version="1.1" xml:space="preserve" width="512" height="298.7">
  <style type="text/css" id="style2">
    .st0{fill:#fff}.st1{fill:#e91d26}.st2{fill:#485fab}.st3{fill:#f8e625}
  </style>
  <g id="g26" transform="translate(0 -106.7)">
    <path class="st0" id="rect4" style="fill:#fff" d="M0 106.7h512v298.7H0z"/>
    <path class="st1" id="rect6" style="fill:#e91d26" d="M0 305.8h512v99.6H0z"/>
    <path class="st2" id="rect8" style="fill:#485fab" d="M0 206.2h512v99.6H0z"/>
    <path class="st1" d="M113.2 164.1c-.9.4-1.8.8-2.7 1.3l2.8 45.2c.8 12.3 6 24 14.8 32.8 6 6 13.4 10.4 21.3 12.7 8-2.4 15.3-6.7 21.3-12.7 8.8-8.8 14-20.4 14.8-32.8l2.8-45.2c-.9-.4-1.8-.9-2.7-1.3l-2.9 46.2c-.7 11.6-5.7 22.7-14 30.9-5.5 5.5-12.1 9.5-19.3 11.8-7.2-2.3-13.9-6.3-19.3-11.8-8.3-8.3-13.2-19.3-14-30.9l-2.9-46.2" id="path10" style="fill:#e91d26"/>
    <path class="st2" d="M185.7 164.1c-11.3-5-23.6-7.6-36.2-7.6-12.6 0-24.9 2.6-36.2 7.6l2.9 46.2c.7 11.6 5.7 22.7 14 30.9 5.5 5.5 12.1 9.5 19.3 11.8 7.2-2.3 13.9-6.3 19.3-11.8 8.3-8.3 13.2-19.3 14-30.9" id="path12" style="fill:#485fab"/>
    <path class="st3" id="polyline14" style="fill:#f8e625" d="M151.6 178.1l1.6-2.2-2.7.3-1.1-2.5-1.1 2.5-2.7-.3 1.7 2.2-1.7 2.2 2.7-.3 1.1 2.5 1.1-2.5 2.7.3"/>
    <path class="st3" id="polyline16" style="fill:#f8e625" d="M141.4 164.4l1.6-2.2-2.7.3-1.1-2.5-1.1 2.5-2.7-.3 1.6 2.2-1.6 2.2 2.7-.3 1.1 2.5 1.1-2.5 2.7.3"/>
    <path class="st3" id="polyline18" style="fill:#f8e625" d="M161.9 164.4l1.6-2.2-2.7.3-1.1-2.5-1.1 2.5-2.7-.3 1.6 2.2-1.6 2.2 2.7-.3 1.1 2.5 1.1-2.5 2.7.3"/>
    <path class="st0" d="M178.7 217l-14.6-19.5-5.9 7.8-8.8-17.5-8.8 17.5-5.8-7.8-14.6 19.5c0 2.6 1 5.1 2.9 6.9 1.9 1.8 4.3 2.9 6.9 2.9 1.7 0 3.4-.5 4.9-1.3.7-.4 1.5-.7 2.4-1 2.5-.7 5.1-.3 7.4 1 1.5.9 3.2 1.3 4.9 1.3 1.7 0 3.4-.4 4.9-1.3 2.2-1.3 4.9-1.6 7.4-1 .8.2 1.6.6 2.4 1 1.5.9 3.2 1.3 4.9 1.3 2.6 0 5.1-1 6.9-2.9 1.8-1.9 2.6-4.3 2.6-6.9" id="path20" style="fill:#fff"/>
    <path class="st0" d="M123.7 227.6c.7 1.3 1.4 2.6 2.2 3.9 2.1.9 4.4 1.2 6.6.6.8-.2 1.6-.6 2.3-1 1.5-.9 3.1-1.3 4.9-1.3 1.7 0 3.4.4 4.9 1.3 2.2 1.3 4.9 1.6 7.4 1 .8-.2 1.6-.6 2.3-1 1.5-.9 3.1-1.3 4.9-1.3 1.7 0 3.4.4 4.9 1.3 2.2 1.3 4.9 1.6 7.4 1 .5-.1 1.1-.3 1.6-.6.8-1.3 1.5-2.6 2.2-3.9-.5.2-1 .4-1.4.7-.7.4-1.5.8-2.4 1-2.5.7-5.2.3-7.4-1-1.5-.9-3.2-1.3-4.9-1.3-1.7 0-3.4.5-4.9 1.3-.7.4-1.5.8-2.4 1-2.5.7-5.2.3-7.4-1-1.5-.9-3.2-1.3-4.9-1.3-1.7 0-3.4.5-4.9 1.3-.7.4-1.5.8-2.4 1-2.5.7-5.2.3-7.4-1-.3-.3-.7-.5-1.2-.7" id="path22" style="fill:#fff"/>
    <path class="st0" d="M170.5 235.1c-1.1 1.5-2.4 2.8-3.7 4.2-4.9 4.9-10.9 8.6-17.3 10.8-6.5-2.2-12.4-5.9-17.4-10.8-1.3-1.3-2.5-2.7-3.7-4.2 1.3.2 2.7.2 4.1-.2.8-.2 1.6-.6 2.3-1 1.5-.8 3.1-1.3 4.9-1.3 1.7 0 3.4.4 4.9 1.3 2.2 1.3 4.9 1.6 7.4 1 .8-.2 1.6-.6 2.3-1 1.5-.8 3.1-1.3 4.9-1.3 1.7 0 3.4.4 4.9 1.3 1.9 1.2 4.2 1.6 6.4 1.2" id="path24" style="fill:#fff"/>
  </g>
</svg>
