<svg xmlns="http://www.w3.org/2000/svg" id="Layer_1" version="1.1" xml:space="preserve" width="512" height="298.7">
  <style type="text/css" id="style2">
    .st0{fill:#cb001c}.st1{fill:#fff}
  </style>
  <g id="g132" transform="translate(0 -106.7)">
    <path class="st0" id="rect4" style="fill:#cb001c" d="M0 382.4h512v23H0z"/>
    <path class="st1" id="rect6" style="fill:#fff" d="M0 359.4h512v23H0z"/>
    <path class="st0" id="rect8" style="fill:#cb001c" d="M0 336.4h512v23H0z"/>
    <path class="st1" id="rect10" style="fill:#fff" d="M0 313.4h512v23H0z"/>
    <path class="st0" id="rect12" style="fill:#cb001c" d="M0 290.5h512v23H0z"/>
    <path class="st1" id="rect14" style="fill:#fff" d="M0 267.5h512v23H0z"/>
    <path class="st0" id="rect16" style="fill:#cb001c" d="M0 244.5h512v23H0z"/>
    <path class="st1" id="rect18" style="fill:#fff" d="M0 221.5h512v23H0z"/>
    <path class="st0" id="rect20" style="fill:#cb001c" d="M0 198.6h512v23H0z"/>
    <path class="st1" id="rect22" style="fill:#fff" d="M0 175.6h512v23H0z"/>
    <path class="st0" id="rect24" style="fill:#cb001c" d="M0 152.6h512v23H0z"/>
    <path class="st1" id="rect26" style="fill:#fff" d="M0 129.6h512v23H0z"/>
    <path class="st0" id="rect28" style="fill:#cb001c" d="M0 106.7h512v23H0z"/>
    <path id="rect30" style="fill:#2a3560" d="M0 106.7h233.8v160.8H0z"/>
    <path class="st1" id="polygon32" style="fill:#fff" d="M29.4 130.5l-5.1 3.7 1.9 6.1-5.1-3.8-5.2 3.8 2-6.1-5.2-3.7h6.4l2-6.1 2 6.1z"/>
    <path class="st1" id="polygon34" style="fill:#fff" d="M29.4 157.3l-5.1 3.8 1.9 6-5.1-3.7-5.2 3.7 2-6-5.2-3.8h6.4l2-6.1 2 6.1z"/>
    <path class="st1" id="polygon36" style="fill:#fff" d="M29.4 184.2l-5.1 3.7 1.9 6.1-5.1-3.8-5.2 3.8 2-6.1-5.2-3.7h6.4l2-6.1 2 6.1z"/>
    <path class="st1" id="polygon38" style="fill:#fff" d="M29.4 211l-5.1 3.8 1.9 6-5.1-3.7-5.2 3.7 2-6-5.2-3.8h6.4l2-6.1 2 6.1z"/>
    <path class="st1" id="polygon40" style="fill:#fff" d="M29.4 237.8l-5.1 3.8 1.9 6.1-5.1-3.8-5.2 3.8 2-6.1-5.2-3.8h6.4l2-6 2 6z"/>
    <path class="st1" id="polygon42" style="fill:#fff" d="M48.1 144.6l-5.1 3.8 1.9 6-5.1-3.7-5.2 3.7 2-6-5.2-3.8h6.4l2-6.1 2 6.1z"/>
    <path class="st1" id="polygon44" style="fill:#fff" d="M48.1 171.4l-5.1 3.8 1.9 6.1-5.1-3.8-5.2 3.8 2-6.1-5.2-3.8h6.4l2-6 2 6z"/>
    <path class="st1" id="polygon46" style="fill:#fff" d="M48.1 198.3l-5.1 3.8 1.9 6-5.1-3.7-5.2 3.7 2-6-5.2-3.8h6.4l2-6.1 2 6.1z"/>
    <path class="st1" id="polygon48" style="fill:#fff" d="M48.1 225.1l-5.1 3.8 1.9 6.1-5.1-3.8-5.2 3.8 2-6.1-5.2-3.8h6.4l2-6 2 6z"/>
    <path class="st1" id="polygon50" style="fill:#fff" d="M67.1 130.5l-5.2 3.7 2 6.1-5.2-3.8-5.2 3.8 2-6.1-5.2-3.7h6.4l2-6.1 2 6.1z"/>
    <path class="st1" id="polygon52" style="fill:#fff" d="M67.1 157.3l-5.2 3.8 2 6-5.2-3.7-5.2 3.7 2-6-5.2-3.8h6.4l2-6.1 2 6.1z"/>
    <path class="st1" id="polygon54" style="fill:#fff" d="M67.1 184.2l-5.2 3.7 2 6.1-5.2-3.8-5.2 3.8 2-6.1-5.2-3.7h6.4l2-6.1 2 6.1z"/>
    <path class="st1" id="polygon56" style="fill:#fff" d="M67.1 211l-5.2 3.8 2 6-5.2-3.7-5.2 3.7 2-6-5.2-3.8h6.4l2-6.1 2 6.1z"/>
    <path class="st1" id="polygon58" style="fill:#fff" d="M67.1 237.8l-5.2 3.8 2 6.1-5.2-3.8-5.2 3.8 2-6.1-5.2-3.8h6.4l2-6 2 6z"/>
    <path class="st1" id="polygon60" style="fill:#fff" d="M85.8 144.6l-5.2 3.8 2 6-5.2-3.7-5.2 3.7 2-6-5.2-3.8h6.4l2-6.1 2 6.1z"/>
    <path class="st1" id="polygon62" style="fill:#fff" d="M85.8 171.4l-5.2 3.8 2 6.1-5.2-3.8-5.2 3.8 2-6.1-5.2-3.8h6.4l2-6 2 6z"/>
    <path class="st1" id="polygon64" style="fill:#fff" d="M85.8 198.3l-5.2 3.8 2 6-5.2-3.7-5.2 3.7 2-6-5.2-3.8h6.4l2-6.1 2 6.1z"/>
    <path class="st1" id="polygon66" style="fill:#fff" d="M85.8 225.1l-5.2 3.8 2 6.1-5.2-3.8-5.2 3.8 2-6.1-5.2-3.8h6.4l2-6 2 6z"/>
    <path class="st1" id="polygon68" style="fill:#fff" d="M104.7 130.5l-5.2 3.7 2 6.1-5.2-3.8-5.1 3.8 2-6.1-5.2-3.7h6.4l1.9-6.1 2 6.1z"/>
    <path class="st1" id="polygon70" style="fill:#fff" d="M104.7 157.3l-5.2 3.8 2 6-5.2-3.7-5.1 3.7 2-6-5.2-3.8h6.4l1.9-6.1 2 6.1z"/>
    <path class="st1" id="polygon72" style="fill:#fff" d="M104.7 184.2l-5.2 3.7 2 6.1-5.2-3.8-5.1 3.8 2-6.1-5.2-3.7h6.4l1.9-6.1 2 6.1z"/>
    <path class="st1" id="polygon74" style="fill:#fff" d="M104.7 211l-5.2 3.8 2 6-5.2-3.7-5.1 3.7 2-6L88 211h6.4l1.9-6.1 2 6.1z"/>
    <path class="st1" id="polygon76" style="fill:#fff" d="M104.7 237.8l-5.2 3.8 2 6.1-5.2-3.8-5.1 3.8 2-6.1-5.2-3.8h6.4l1.9-6 2 6z"/>
    <path class="st1" id="polygon78" style="fill:#fff" d="M123.4 144.6l-5.2 3.8 2 6-5.2-3.7-5.1 3.7 1.9-6-5.1-3.8h6.4l1.9-6.1 2 6.1z"/>
    <path class="st1" id="polygon80" style="fill:#fff" d="M123.4 171.4l-5.2 3.8 2 6.1-5.2-3.8-5.1 3.8 1.9-6.1-5.1-3.8h6.4l1.9-6 2 6z"/>
    <path class="st1" id="polygon82" style="fill:#fff" d="M123.4 198.3l-5.2 3.8 2 6-5.2-3.7-5.1 3.7 1.9-6-5.1-3.8h6.4l1.9-6.1 2 6.1z"/>
    <path class="st1" id="polygon84" style="fill:#fff" d="M123.4 225.1l-5.2 3.8 2 6.1-5.2-3.8-5.1 3.8 1.9-6.1-5.1-3.8h6.4l1.9-6 2 6z"/>
    <path class="st1" id="polygon86" style="fill:#fff" d="M142.3 130.5l-5.1 3.7 1.9 6.1-5.1-3.8-5.2 3.8 2-6.1-5.2-3.7h6.4l2-6.1 2 6.1z"/>
    <path class="st1" id="polygon88" style="fill:#fff" d="M142.3 157.3l-5.1 3.8 1.9 6-5.1-3.7-5.2 3.7 2-6-5.2-3.8h6.4l2-6.1 2 6.1z"/>
    <path class="st1" id="polygon90" style="fill:#fff" d="M142.3 184.2l-5.1 3.7 1.9 6.1-5.1-3.8-5.2 3.8 2-6.1-5.2-3.7h6.4l2-6.1 2 6.1z"/>
    <path class="st1" id="polygon92" style="fill:#fff" d="M142.3 211l-5.1 3.8 1.9 6-5.1-3.7-5.2 3.7 2-6-5.2-3.8h6.4l2-6.1 2 6.1z"/>
    <path class="st1" id="polygon94" style="fill:#fff" d="M142.3 237.8l-5.1 3.8 1.9 6.1-5.1-3.8-5.2 3.8 2-6.1-5.2-3.8h6.4l2-6 2 6z"/>
    <path class="st1" id="polygon96" style="fill:#fff" d="M161 144.6l-5.1 3.8 1.9 6-5.1-3.7-5.2 3.7 2-6-5.2-3.8h6.4l2-6.1 1.9 6.1z"/>
    <path class="st1" id="polygon98" style="fill:#fff" d="M161 171.4l-5.1 3.8 1.9 6.1-5.1-3.8-5.2 3.8 2-6.1-5.2-3.8h6.4l2-6 1.9 6z"/>
    <path class="st1" id="polygon100" style="fill:#fff" d="M161 198.3l-5.1 3.8 1.9 6-5.1-3.7-5.2 3.7 2-6-5.2-3.8h6.4l2-6.1 1.9 6.1z"/>
    <path class="st1" id="polygon102" style="fill:#fff" d="M161 225.1l-5.1 3.8 1.9 6.1-5.1-3.8-5.2 3.8 2-6.1-5.2-3.8h6.4l2-6 1.9 6z"/>
    <path class="st1" id="polygon104" style="fill:#fff" d="M180 130.5l-5.2 3.7 2 6.1-5.2-3.8-5.2 3.8 2-6.1-5.2-3.7h6.4l2-6.1 2 6.1z"/>
    <path class="st1" id="polygon106" style="fill:#fff" d="M180 157.3l-5.2 3.8 2 6-5.2-3.7-5.2 3.7 2-6-5.2-3.8h6.4l2-6.1 2 6.1z"/>
    <path class="st1" id="polygon108" style="fill:#fff" d="M180 184.2l-5.2 3.7 2 6.1-5.2-3.8-5.2 3.8 2-6.1-5.2-3.7h6.4l2-6.1 2 6.1z"/>
    <path class="st1" id="polygon110" style="fill:#fff" d="M180 211l-5.2 3.8 2 6-5.2-3.7-5.2 3.7 2-6-5.2-3.8h6.4l2-6.1 2 6.1z"/>
    <path class="st1" id="polygon112" style="fill:#fff" d="M180 237.8l-5.2 3.8 2 6.1-5.2-3.8-5.2 3.8 2-6.1-5.2-3.8h6.4l2-6 2 6z"/>
    <path class="st1" id="polygon114" style="fill:#fff" d="M198.7 144.6l-5.2 3.8 2 6-5.2-3.7-5.2 3.7 2-6-5.2-3.8h6.4l2-6.1 2 6.1z"/>
    <path class="st1" id="polygon116" style="fill:#fff" d="M198.7 171.4l-5.2 3.8 2 6.1-5.2-3.8-5.2 3.8 2-6.1-5.2-3.8h6.4l2-6 2 6z"/>
    <path class="st1" id="polygon118" style="fill:#fff" d="M198.7 198.3l-5.2 3.8 2 6-5.2-3.7-5.2 3.7 2-6-5.2-3.8h6.4l2-6.1 2 6.1z"/>
    <path class="st1" id="polygon120" style="fill:#fff" d="M198.7 225.1l-5.2 3.8 2 6.1-5.2-3.8-5.2 3.8 2-6.1-5.2-3.8h6.4l2-6 2 6z"/>
    <path class="st1" id="polygon122" style="fill:#fff" d="M217.6 130.5l-5.2 3.7 2 6.1-5.2-3.8-5.1 3.8 1.9-6.1-5.1-3.7h6.4l1.9-6.1 2 6.1z"/>
    <path class="st1" id="polygon124" style="fill:#fff" d="M217.6 157.3l-5.2 3.8 2 6-5.2-3.7-5.1 3.7 1.9-6-5.1-3.8h6.4l1.9-6.1 2 6.1z"/>
    <path class="st1" id="polygon126" style="fill:#fff" d="M217.6 184.2l-5.2 3.7 2 6.1-5.2-3.8-5.1 3.8 1.9-6.1-5.1-3.7h6.4l1.9-6.1 2 6.1z"/>
    <path class="st1" id="polygon128" style="fill:#fff" d="M217.6 211l-5.2 3.8 2 6-5.2-3.7-5.1 3.7 1.9-6-5.1-3.8h6.4l1.9-6.1 2 6.1z"/>
    <path class="st1" id="polygon130" style="fill:#fff" d="M217.6 237.8l-5.2 3.8 2 6.1-5.2-3.8-5.1 3.8 1.9-6.1-5.1-3.8h6.4l1.9-6 2 6z"/>
  </g>
</svg>
