<svg xmlns="http://www.w3.org/2000/svg" id="Layer_1" version="1.1" xml:space="preserve" width="512" height="298.7">
  <style type="text/css" id="style2">
    .st0{fill:#fff}.st1{fill:#303e99}.st2{fill:#bd1f34}
  </style>
  <g id="g28" transform="translate(0 -106.7)">
    <path class="st0" id="rect4" style="fill:#fff" d="M0 106.7h512v298.7H0z"/>
    <path class="st1" id="rect6" style="fill:#303e99" d="M0 206.2h512v199.1H0z"/>
    <path class="st2" id="rect8" style="fill:#bd1f34" d="M0 305.8h512v99.6H0z"/>
    <path class="st0" d="M77.5 176.9c-6 .5-4.3 7.8-5.1 11.9-2.1 28.6-5.1 58 3.7 85.8 6.9 22.4 23.3 41 43.2 52.9 4.9 2.7 9.7 6.2 15.1 7.6 5.7-1.6 10.7-5.2 15.8-8.1 19.6-11.9 35.7-30.3 42.5-52.5 8.9-28.3 5.7-58.2 3.6-87.3-.3-4 .3-10.9-5.6-10.5H77.5z" id="path10" style="fill:#fff"/>
    <path class="st2" d="M134.4 181.3v149.3c-69.1-33.5-61.5-88.9-56.9-149.3zm0 0v149.3c69.1-33.5 61.5-88.9 56.9-149.3z" id="path12" style="fill:#bd1f34"/>
    <path class="st0" d="M142.5 222.3c7.3 0 14.7 1.3 21.8 2.7-2.1-6.9-2.1-11.2 0-18.1-7.1 1.4-14.5 2.7-21.8 2.7h-16.1c-7.3 0-14.7-1.3-21.8-2.7 2.1 6.9 2.1 11.2 0 18.1 7.1-1.4 14.5-2.7 21.8-2.7z" id="path14" style="fill:#fff"/>
    <path class="st0" d="M148.7 249.5c7.3 0 14.7 1.3 21.8 2.7-2.1-6.9-2.1-11.2 0-18.1-7.1 1.4-14.5 2.7-21.8 2.7H120c-7.3 0-14.7-1.3-21.8-2.7 2.1 6.9 2.1 11.2 0 18.1 7.1-1.4 14.5-2.7 21.8-2.7z" id="path16" style="fill:#fff"/>
    <path class="st0" d="M125.3 187c1.4 7.1 2.8 14.5 2.8 21.7v92.5h12.7v-92.5c0-7.2 1.3-14.6 2.8-21.7-7.1 2.2-11.3 2.2-18.3 0" id="path18" style="fill:#fff"/>
    <path class="st1" d="M105.7 278.8c-8.2 0-14.8 6.6-14.8 14.7 0 .6.1 1.2.2 1.8 2.9 4.2 6.2 8.3 10 12.2 1.5.5 3 .8 4.6.8 8.2 0 14.8-6.6 14.8-14.8.1-8.1-6.6-14.7-14.8-14.7" id="path20" style="fill:#303e99"/>
    <path class="st1" d="M134.4 270.1c-10.4 0-18.8 8.4-18.8 18.8s8.4 18.8 18.8 18.8 18.8-8.4 18.8-18.8-8.4-18.8-18.8-18.8" id="path22" style="fill:#303e99"/>
    <path class="st1" d="M163.1 278.8c-8.2 0-14.8 6.6-14.8 14.7 0 8.2 6.6 14.8 14.8 14.8 1.6 0 3.1-.3 4.6-.8 3.9-3.9 7.2-8 10.1-12.2.1-.6.2-1.2.2-1.8-.1-8.1-6.8-14.7-14.9-14.7" id="path24" style="fill:#303e99"/>
    <path class="st1" d="M93.4 298.6c9.1 12.1 22.1 23 41 32.1 18.9-9.2 31.9-20 41-32.1z" id="path26" style="fill:#303e99"/>
  </g>
</svg>
