<?xml version="1.0" encoding="UTF-8" standalone="no"?>
<!-- Created with Inkscape (http://www.inkscape.org/) -->

<svg
   xmlns:dc="http://purl.org/dc/elements/1.1/"
   xmlns:cc="http://creativecommons.org/ns#"
   xmlns:rdf="http://www.w3.org/1999/02/22-rdf-syntax-ns#"
   xmlns:svg="http://www.w3.org/2000/svg"
   xmlns="http://www.w3.org/2000/svg"
   xmlns:sodipodi="http://sodipodi.sourceforge.net/DTD/sodipodi-0.dtd"
   xmlns:inkscape="http://www.inkscape.org/namespaces/inkscape"
   width="161.92235mm"
   height="162.85634mm"
   viewBox="0 0 161.92235 162.85634"
   version="1.1"
   id="svg872"
   inkscape:version="0.92.3 (2405546, 2018-03-11)"
   sodipodi:docname="magnifying-glass-icon.svg">
  <defs
     id="defs866" />
  <sodipodi:namedview
     id="base"
     pagecolor="#ffffff"
     bordercolor="#666666"
     borderopacity="1.0"
     inkscape:pageopacity="0.0"
     inkscape:pageshadow="2"
     inkscape:zoom="0.73117962"
     inkscape:cx="98.997758"
     inkscape:cy="289.70151"
     inkscape:document-units="mm"
     inkscape:current-layer="Search__x28_and_thou_shall_find_x29_"
     showgrid="false"
     inkscape:window-width="1920"
     inkscape:window-height="1017"
     inkscape:window-x="-8"
     inkscape:window-y="-8"
     inkscape:window-maximized="1" />
  <metadata
     id="metadata869">
    <rdf:RDF>
      <cc:Work
         rdf:about="">
        <dc:format>image/svg+xml</dc:format>
        <dc:type
           rdf:resource="http://purl.org/dc/dcmitype/StillImage" />
        <dc:title />
      </cc:Work>
    </rdf:RDF>
  </metadata>
  <g
     inkscape:label="Layer 1"
     inkscape:groupmode="layer"
     id="layer1"
     transform="translate(-19.504888,-62.793859)">
    <g
       id="g9"
       transform="matrix(-0.26458333,0,0,0.26458333,181.89423,62.793859)">
      <g
         id="g7">
        <g
           id="Search__x28_and_thou_shall_find_x29_">
          <g
             id="g4">
            <path
               d="M 602.531,549.736 418.221,364.368 C 444.9,326.648 460.749,280.639 460.749,230.82 460.75,103.35 357.997,0 231.258,0 104.518,0 1.765,103.35 1.765,230.82 c 0,127.47 102.753,230.82 229.493,230.82 49.53,0 95.271,-15.944 132.78,-42.777 l 184.31,185.366 c 7.482,7.521 17.292,11.291 27.102,11.291 9.812,0 19.62,-3.77 27.083,-11.291 14.963,-15.041 14.963,-39.452 -0.002,-54.493 z M 355.9,319.763 340.858,341.036 319.7,356.174 c -26.083,18.658 -56.667,28.526 -88.442,28.526 -84.365,0 -152.995,-69.035 -152.995,-153.88 0,-84.846 68.63,-153.88 152.995,-153.88 84.365,0 152.996,69.034 152.996,153.88 0.017,31.949 -9.792,62.706 -28.354,88.943 z"
               id="path2"
               inkscape:connector-curvature="0" />
          </g>
          <path
             style="fill:#d31212;fill-opacity:0;stroke:none;stroke-width:8.20591831;stroke-miterlimit:4;stroke-dasharray:none;stroke-opacity:1"
             d="M 26.79246,612.70048 C 17.14231,609.26433 10.60294,603.73624 5.4577837,594.66506 1.7363378,588.10395 1.2144923,585.90721 1.2422677,576.9196 1.2672589,568.83272 1.956975,565.3599 4.5017117,560.50776 6.6770701,556.35995 38.47458,523.45103 102.02698,459.57376 l 94.29752,-94.77957 -2.42972,-3.69145 C 153.07614,299.08744 142.92988,226.75556 165.4634,158.41778 187.91856,90.317628 242.40098,35.352611 309.76055,12.842474 337.83661,3.460051 347.71476,1.9714332 382.10193,1.9407682 c 33.89319,-0.030224 45.97344,1.7016993 71.80178,10.2940988 99.73584,33.179444 165.00048,131.616673 156.51837,236.073163 -3.43537,42.30616 -18.01082,82.76581 -42.00798,116.60893 -11.78919,16.62623 -37.04003,41.87707 -53.66626,53.66625 -15.74031,11.16099 -43.91421,25.41418 -61.45018,31.08766 -25.54758,8.26552 -40.00386,10.32341 -71.87956,10.2323 -24.20458,-0.0692 -30.9066,-0.55338 -42.62203,-3.07924 -28.32889,-6.10777 -55.50476,-17.10048 -78.08721,-31.58653 l -11.04574,-7.08555 -94.59103,95.01354 c -69.603861,69.91478 -96.173202,95.75725 -100.580493,97.82893 -8.908207,4.18734 -18.987335,4.80819 -27.699137,1.70616 z M 413.18225,382.13203 c 30.30656,-6.44865 55.72522,-20.31862 77.73286,-42.4158 46.56445,-46.7539 58.26069,-117.2315 29.32554,-176.7059 C 486.50167,93.661929 406.42123,59.899624 333.90549,84.450516 248.41169,113.39526 205.8612,209.62205 241.84181,292.65009 c 5.20864,12.01932 25.26859,43.11392 31.77616,49.25567 6.73268,6.35421 34.93579,24.67366 45.19818,29.35867 12.64174,5.77123 26.5771,9.99106 40.58106,12.28853 13.51845,2.21781 39.96815,1.51905 53.78504,-1.42093 z"
             id="path888"
             inkscape:connector-curvature="0"
             transform="matrix(-1,0,0,1,613.755,0)" />
          <path
             style="fill:#d31212;fill-opacity:0;stroke:none;stroke-width:8.20591831;stroke-miterlimit:4;stroke-dasharray:none;stroke-opacity:1"
             d="M 26.79246,612.70048 C 17.14231,609.26433 10.60294,603.73624 5.4577837,594.66506 1.7363378,588.10395 1.2144923,585.90721 1.2422677,576.9196 1.2672589,568.83272 1.956975,565.3599 4.5017117,560.50776 6.6770701,556.35995 38.47458,523.45103 102.02698,459.57376 l 94.29752,-94.77957 -2.42972,-3.69145 C 153.07614,299.08744 142.92988,226.75556 165.4634,158.41778 187.91856,90.317628 242.40098,35.352611 309.76055,12.842474 337.83661,3.460051 347.71476,1.9714332 382.10193,1.9407682 c 33.89319,-0.030224 45.97344,1.7016993 71.80178,10.2940988 99.73584,33.179444 165.00048,131.616673 156.51837,236.073163 -3.43537,42.30616 -18.01082,82.76581 -42.00798,116.60893 -11.78919,16.62623 -37.04003,41.87707 -53.66626,53.66625 -15.74031,11.16099 -43.91421,25.41418 -61.45018,31.08766 -25.54758,8.26552 -40.00386,10.32341 -71.87956,10.2323 -24.20458,-0.0692 -30.9066,-0.55338 -42.62203,-3.07924 -28.32889,-6.10777 -55.50476,-17.10048 -78.08721,-31.58653 l -11.04574,-7.08555 -94.59103,95.01354 c -69.603861,69.91478 -96.173202,95.75725 -100.580493,97.82893 -8.908207,4.18734 -18.987335,4.80819 -27.699137,1.70616 z M 413.18225,382.13203 c 30.30656,-6.44865 55.72522,-20.31862 77.73286,-42.4158 46.56445,-46.7539 58.26069,-117.2315 29.32554,-176.7059 C 486.50167,93.661929 406.42123,59.899624 333.90549,84.450516 248.41169,113.39526 205.8612,209.62205 241.84181,292.65009 c 5.20864,12.01932 25.26859,43.11392 31.77616,49.25567 6.73268,6.35421 34.93579,24.67366 45.19818,29.35867 12.64174,5.77123 26.5771,9.99106 40.58106,12.28853 13.51845,2.21781 39.96815,1.51905 53.78504,-1.42093 z"
             id="path890"
             inkscape:connector-curvature="0"
             transform="matrix(-1,0,0,1,613.755,0)" />
          <path
             style="fill:#202225;fill-opacity:1;stroke:none;stroke-width:8.20591831;stroke-miterlimit:4;stroke-dasharray:none;stroke-opacity:1"
             d="M 26.79246,612.70048 C 17.14231,609.26433 10.60294,603.73624 5.4577837,594.66506 1.7363378,588.10395 1.2144923,585.90721 1.2422677,576.9196 1.2672589,568.83272 1.956975,565.3599 4.5017117,560.50776 6.6770701,556.35995 38.47458,523.45103 102.02698,459.57376 l 94.29752,-94.77957 -2.42972,-3.69145 C 153.07614,299.08744 142.92988,226.75556 165.4634,158.41778 187.91856,90.317628 242.40098,35.352611 309.76055,12.842474 337.83661,3.460051 347.71476,1.9714332 382.10193,1.9407682 c 33.89319,-0.030224 45.97344,1.7016993 71.80178,10.2940988 99.73584,33.179444 165.00048,131.616673 156.51837,236.073163 -3.43537,42.30616 -18.01082,82.76581 -42.00798,116.60893 -11.78919,16.62623 -37.04003,41.87707 -53.66626,53.66625 -15.74031,11.16099 -43.91421,25.41418 -61.45018,31.08766 -25.54758,8.26552 -40.00386,10.32341 -71.87956,10.2323 -24.20458,-0.0692 -30.9066,-0.55338 -42.62203,-3.07924 -28.32889,-6.10777 -55.50476,-17.10048 -78.08721,-31.58653 l -11.04574,-7.08555 -94.59103,95.01354 c -69.603861,69.91478 -96.173202,95.75725 -100.580493,97.82893 -8.908207,4.18734 -18.987335,4.80819 -27.699137,1.70616 z M 413.18225,382.13203 c 30.30656,-6.44865 55.72522,-20.31862 77.73286,-42.4158 46.56445,-46.7539 58.26069,-117.2315 29.32554,-176.7059 C 486.50167,93.661929 406.42123,59.899624 333.90549,84.450516 248.41169,113.39526 205.8612,209.62205 241.84181,292.65009 c 5.20864,12.01932 25.26859,43.11392 31.77616,49.25567 6.73268,6.35421 34.93579,24.67366 45.19818,29.35867 12.64174,5.77123 26.5771,9.99106 40.58106,12.28853 13.51845,2.21781 39.96815,1.51905 53.78504,-1.42093 z"
             id="path892"
             inkscape:connector-curvature="0"
             transform="matrix(-1,0,0,1,613.755,0)" />
        </g>
      </g>
    </g>
  </g>
</svg>
